#N canvas 4 4 1920 1026 12;
#X floatatom 459 762 0 0 127 0 It\ sends\ data\ to\ parameter\ 1 - - 0;
#X msg 459 785 param_set 1 \$1;
#X obj 522 932 s \$0-to-controller;
#X msg 522 818 param_label 1 Param1;
#X text 308 818 It adds a label to parameter 1;
#X text 336 892 It removes the label of parameter 1;
#X obj 758 55 akai.midimix;
#A saved 0 0 0 0 0 0 0 0 0 0 0 0 0 0 0 0 0 0 0 0 0 0 0 0 0 0 0 0 0 0 0 0 0 0 0 0 0 0 0 0 0 0 0 0 0 0 0 0 127 127 127 127 127 127 127 127 0 0 0 0;
#X obj 758 27 r \$0-to-controller;
#X obj 758 985 s \$0-from-controller;
#X obj 586 865 loadbang;
#X obj 44 38 cnv 19 525 76 empty empty AKAI\ Midimix\ [akai.midimix] 5 38 0 32 #bbbbbb #404040 0;
#X text 96 125 This patch allows to control parameters with a friendly GUI similar to the hardware device which makes the communication faster and plug and play instead of having to design a template for it using [midi objects].;
#X text 96 195 It has to be used in conjuction with a patch of akai midmix editor which is also provided among this template. it can send and receive MIDI data from and to the parent patch.;
#X obj 44 321 cnv 19 525 140 empty empty empty 186 38 0 32 #dfdfdf #404040 0;
#X text 96 409 out1: send data to the parent patch in a range of (0 \, 127) for knobs and faders and (0 \, 1) for toggles.;
#X text 96 329 in1: receives incoming data from the parent patch in a of (0 \, 127) knobs faders and (0 \, 1) for toggles.;
#X obj 214 638 cnv 19 150 35 empty empty Usage 45 17 0 18 #dfdfdf #404040 0;
#X obj 44 668 cnv 19 100 25 empty empty Send 30 14 0 15 #dfdfdf #404040 0;
#X obj 44 838 cnv 19 100 25 empty empty Receive 15 14 0 15 #dfdfdf #404040 0;
#X obj 504 645 r \$0-from-controller;
#X obj 504 669 route 1;
#X floatatom 504 693 0 0 0 0 It\ receives\ data\ from\ parameter\ 1 - - 0;
#X text 96 379 in2/arg1: MIDI port number;
#X msg 586 892 param_label 1 \ ;
#X text 96 265 TO SAVE PARAMETERS STATES YOU CAN LOADBANGER MESSAGES WITH SETTINGS TO THE CONTROLLER FROM THE PARENT PATCH.;
#X text 29 930 NOTE! This abstraction needs ELSE externals library;
#X text 97 452 A savestate method is provided so it can store and restore the values when opening the parent patch \, however it doesn't to such thing with labeles \, to do that you will have to loadbanger a message to restore the labels.;
#X text 30 988 https://github.com/DSBhproject;
#X text 97 517 This abstraction supports multiple independent instances within a parent patch. Each instance retains its own settings thanks to an internal savestate mechanism. However \, if more than one instance is active when launching the help patch \, conflicts may occur—such as incorrect port assignment or unexpected behavior. For best results \, it's recommended to use a single instance when accessing the help file.;
#X obj 530 125 loadbang;
#X obj 530 149 del 100;
#X msg 530 173 0;
#X floatatom 530 222 5 0 0 1 get\ port\ nº\ from\ main\ abs - - 0;
#X obj 530 198 text get akai.midimix_lastport;
#X connect 0 0 1 0;
#X connect 1 0 2 0;
#X connect 3 0 2 0;
#X connect 6 0 8 0;
#X connect 7 0 6 0;
#X connect 9 0 23 0;
#X connect 19 0 20 0;
#X connect 20 0 21 0;
#X connect 23 0 2 0;
#X connect 29 0 30 0;
#X connect 30 0 31 0;
#X connect 31 0 33 0;
#X connect 32 0 6 1;
#X connect 33 0 32 0;
